<svg width="401" height="401" viewBox="0 0 401 401" fill="none" xmlns="http://www.w3.org/2000/svg">
<path d="M32.974 226.702C38.99 231.402 48.202 234.41 56.756 234.41C71.044 234.41 80.82 226.044 80.82 213.354C80.82 204.33 75.838 198.314 64.088 193.426L60.798 192.016C52.62 188.632 49.706 185.906 49.706 182.428C49.706 178.292 53.654 175.472 59.106 175.472C63.148 175.472 67.754 176.976 72.83 179.89L79.504 168.798C74.24 165.32 65.874 162.97 58.448 162.97C44.818 162.97 35.794 170.96 35.794 183.086C35.794 192.298 41.058 198.502 53.372 203.484L56.192 204.706C63.806 207.808 66.72 210.44 66.72 214.2C66.72 218.712 62.584 221.72 56.38 221.72C51.022 221.72 44.912 219.37 40.024 215.61L32.974 226.702ZM135.562 224.634L125.692 217.302C122.214 221.438 118.736 223.224 113.848 223.224C106.704 223.224 101.91 219.464 100.688 213.636H136.878C137.066 211.85 137.16 210.064 137.16 208.654C137.16 194.46 126.914 183.65 112.814 183.65C98.3378 183.65 87.0578 194.836 87.0578 209.218C87.0578 223.694 98.5258 234.41 114.13 234.41C123.06 234.41 130.674 230.932 135.562 224.634ZM101.064 203.766C102.568 198.502 106.422 194.648 112.72 194.648C118.83 194.648 123.154 198.314 123.906 203.766H101.064ZM140.195 195.87H148.843V233H161.251V195.87H171.967V185.06H161.251V171.43H148.843V185.06H140.195V195.87ZM176.466 170.866C176.466 175.19 179.944 178.386 184.362 178.386C188.874 178.386 192.446 175.096 192.446 170.866C192.446 166.542 188.874 163.346 184.362 163.346C179.944 163.346 176.466 166.542 176.466 170.866ZM178.252 233H190.66V185.06H178.252V233ZM197.017 195.87H205.665V233H218.073V195.87H228.789V185.06H218.073V171.43H205.665V185.06H197.017V195.87ZM235.92 164.38V205.74C235.92 222.378 248.234 234.41 265.06 234.41C281.792 234.41 293.918 222.284 293.918 205.74V164.38H280.57V204.706C280.57 214.67 274.272 221.532 265.06 221.532C255.848 221.532 249.268 214.576 249.268 204.706V164.38H235.92ZM355.729 209.03C355.729 194.93 344.637 183.65 330.725 183.65C324.709 183.65 319.257 185.812 314.933 189.478V185.06H303.371V253.68H315.779V229.334C319.915 232.53 325.085 234.41 330.725 234.41C344.637 234.41 355.729 223.13 355.729 209.03ZM342.663 209.03C342.663 216.926 336.647 222.942 329.127 222.942C321.795 222.942 315.779 216.926 315.779 209.03C315.779 201.134 321.795 195.118 329.127 195.118C336.647 195.118 342.663 201.134 342.663 209.03Z" fill="white"/>
</svg>
