<svg width="24" height="24" viewBox="0 0 24 24" fill="none" xmlns="http://www.w3.org/2000/svg">
<path d="M7.92013 12.6469L16.0111 20.0625C16.1046 20.1488 16.2181 20.2082 16.3403 20.2349C16.4625 20.2617 16.5893 20.2549 16.7082 20.2152C16.8271 20.1754 16.9341 20.1042 17.0186 20.0084C17.1031 19.9126 17.1622 19.7956 17.1901 19.6688L20.5741 4.27503C20.6025 4.14246 20.5958 4.00435 20.5547 3.87544C20.5136 3.74654 20.4397 3.63168 20.3408 3.54312C20.2419 3.45457 20.1218 3.39565 19.9933 3.37265C19.8648 3.34965 19.7327 3.36343 19.6111 3.41253L2.99713 10.2094C2.33113 10.4813 2.42113 11.4938 3.12313 11.6438L7.92013 12.6469Z" stroke="black" stroke-width="1.5" stroke-linecap="round" stroke-linejoin="round"/>
<path d="M7.92004 12.6469L20.169 3.43127" stroke="black" stroke-width="1.5" stroke-linecap="round" stroke-linejoin="round"/>
<path d="M11.961 16.35L9.15304 19.275C9.05287 19.3809 8.92471 19.4535 8.78486 19.4834C8.645 19.5133 8.49977 19.4992 8.36762 19.443C8.23546 19.3867 8.12235 19.2908 8.04265 19.1674C7.96296 19.044 7.92028 18.8987 7.92004 18.75V12.6469" stroke="black" stroke-width="1.5" stroke-linecap="round" stroke-linejoin="round"/>
</svg>
