<svg width="24" height="24" viewBox="0 0 24 24" fill="none" xmlns="http://www.w3.org/2000/svg">
<path d="M12.0005 8.24997C12.0005 6.18747 13.7349 4.47185 15.7974 4.49997C16.5197 4.50831 17.2242 4.72509 17.8262 5.12423C18.4283 5.52338 18.9022 6.08792 19.1911 6.74997H22.5005L19.4724 9.7781C19.277 12.8199 17.9305 15.6731 15.7066 17.7576C13.4828 19.8421 10.5486 21.0015 7.50051 21C4.50051 21 3.75051 19.875 3.75051 19.875C3.75051 19.875 6.75051 18.75 8.25051 16.5C8.25051 16.5 2.25051 13.5 3.75051 5.24997C3.75051 5.24997 7.50051 8.99997 12.0005 9.74997V8.24997Z" stroke="black" stroke-width="1.5" stroke-linecap="round" stroke-linejoin="round"/>
</svg>
